# xmcd CD database file
#
# Track frame offsets:
#	150
#	3875
#	18180
#	33939
#	69323
#	91058
#	103905
#	120233
#	142385
#	156721
#	174712
#	198239
#	220122
#	239132
#	248166
#	271717
#	279114
#	301753
#	319934
#	336200
#
# Disc length: 4690 seconds
#
# Revision: 1
# Processed by: cddbd v1.4PL0 Copyright (c) Steve Scherf et al.
# Submitted via: Feurio! 1.66 - http://www.feurio.com
#
DISCID=14125014
DTITLE=Grachmusikoff - Goddes Allmächdig
DYEAR=2002
DGENRE=blues
TTITLE0=Gebrauchte Pariser
TTITLE1=Die Zeiten sind modern
TTITLE2=Schwaaz Vere
TTITLE3=Ikarus vom Lautertal
TTITLE4=Auf'm Land
TTITLE5=Dr Schnorrer
TTITLE6=Banana Boat
TTITLE7=Dominus wo bist Du?
TTITLE8=Jupp vom Tennisclub
TTITLE9=Light my fire
TTITLE10=Bhudda oder Jutta
TTITLE11=Dr Flöter
TTITLE12=Nacht ohne Froga
TTITLE13=Knut Wuchtig
TTITLE14=Dust my broom
TTITLE15=Heimatlied
TTITLE16=Ratzarieder Schenkelbatscher
TTITLE17=Bin ich selbr Rastaman?
TTITLE18=Driftin' Blues
TTITLE19=Hootschie-Gootschie-Mama
EXTD=Grachmusikoff Live 2002
EXTT0=
EXTT1=
EXTT2=
EXTT3=
EXTT4=
EXTT5=
EXTT6=
EXTT7=
EXTT8=
EXTT9=
EXTT10=
EXTT11=
EXTT12=
EXTT13=
EXTT14=
EXTT15=
EXTT16=
EXTT17=
EXTT18=
EXTT19=
PLAYORDER=
